<svg width="140" height="30" viewBox="0 0 140 30" fill="none" xmlns="http://www.w3.org/2000/svg">
<g clip-path="url(#clip0_2297_13346)">
<path d="M20.9049 0.399902H6.96829C3.11981 0.399902 0 3.51971 0 7.36819V21.3048C0 25.1533 3.11981 28.2731 6.96829 28.2731H20.9049C24.7534 28.2731 27.8732 25.1533 27.8732 21.3048V7.36819C27.8732 3.51971 24.7534 0.399902 20.9049 0.399902Z" fill="#04504C"/>
<path d="M19.1634 4.75488L12.2299 23.9177H8.71094L15.6445 4.75488H19.1634Z" fill="white"/>
<path d="M38.5096 18.0277C38.4096 18.0277 38.33 18.1124 38.3385 18.212C38.6233 21.5517 41.6358 23.5779 46.0395 23.5779C50.3668 23.5779 53.3771 21.5397 53.3771 18.3412C53.3771 14.7038 50.3041 13.8571 46.6039 13.4808C44.2835 13.1986 42.9038 13.0732 42.9038 11.8503C42.9038 10.8155 44.0326 10.1883 45.7573 10.1883C47.4708 10.1883 48.6655 10.9088 48.8719 12.1011C48.8872 12.1894 48.9614 12.2579 49.051 12.2579H52.94C53.0408 12.2579 53.1208 12.1718 53.1107 12.0715C52.7929 8.89332 49.8455 7.05259 45.6005 7.05259C41.4613 7.02123 38.6705 9.12217 38.6705 12.3206C38.6705 15.6445 41.5867 16.4911 45.3496 16.9301C47.9523 17.2751 49.0498 17.3691 49.0498 18.6862C49.0498 19.815 47.9209 20.4108 46.0708 20.4108C43.9871 20.4108 42.7759 19.5092 42.5492 18.1822C42.5342 18.0947 42.4603 18.0277 42.3715 18.0277H38.5096Z" fill="#04504C"/>
<path d="M64.6431 7.08397C62.354 7.08397 60.7234 8.11876 59.6886 9.49848L59.2773 7.41262C59.2612 7.33097 59.1896 7.27211 59.1064 7.27211H55.5668C55.4706 7.27211 55.3926 7.35011 55.3926 7.44632V29.487C55.3926 29.5832 55.4706 29.6612 55.5668 29.6612H59.6398C59.736 29.6612 59.814 29.5832 59.814 29.487V21.3515C60.8488 22.6685 62.448 23.5779 64.6744 23.5779C69.0017 23.5779 72.1375 20.3795 72.1375 15.3623C72.1375 10.2824 69.0017 7.05261 64.6431 7.08397ZM63.671 19.9718C61.2565 19.9718 59.7513 18.059 59.7513 15.2996C59.7513 12.5715 61.2565 10.69 63.671 10.69C66.0855 10.69 67.6534 12.5715 67.6534 15.2996C67.6534 18.059 66.0855 19.9718 63.671 19.9718Z" fill="#04504C"/>
<path d="M84.8506 1.00049C84.972 1.00049 85.0562 1.12168 85.0138 1.23551L76.8026 23.2763C76.7772 23.3444 76.7121 23.3897 76.6393 23.3897H72.7779C72.6564 23.3897 72.5722 23.2685 72.6146 23.1546L80.8259 1.11388C80.8513 1.0457 80.9164 1.00049 80.9891 1.00049H84.8506Z" fill="#04504C"/>
<path d="M88.7101 5.54734C90.1525 5.54734 91.2814 4.48119 91.2814 3.07011C91.2814 1.62767 90.1525 0.561523 88.7101 0.561523C87.2676 0.561523 86.1387 1.62767 86.1387 3.07011C86.1387 4.48119 87.2676 5.54734 88.7101 5.54734ZM86.4837 23.2154C86.4837 23.3117 86.5617 23.3897 86.6579 23.3897H90.7622C90.8584 23.3897 90.9364 23.3117 90.9364 23.2154V7.4462C90.9364 7.34999 90.8584 7.27199 90.7622 7.27199H86.6579C86.5617 7.27199 86.4837 7.34999 86.4837 7.4462V23.2154Z" fill="#04504C"/>
<path d="M94.8324 18.7802C94.8324 21.8532 96.3689 23.3898 99.4419 23.3898H102.874C102.97 23.3898 103.048 23.3118 103.048 23.2155V19.8324C103.048 19.7362 102.97 19.6582 102.874 19.6582H100.853C99.6928 19.6582 99.2538 19.1879 99.2538 18.059V11.1778C99.2538 11.0816 99.3318 11.0036 99.428 11.0036H102.78C102.876 11.0036 102.954 10.9256 102.954 10.8294V7.44625C102.954 7.35004 102.876 7.27204 102.78 7.27204H99.428C99.3318 7.27204 99.2538 7.19405 99.2538 7.09783V2.93079C99.2538 2.83458 99.1758 2.75659 99.0796 2.75659H95.0066C94.9104 2.75659 94.8324 2.83458 94.8324 2.93079V7.09783C94.8324 7.19405 94.7544 7.27204 94.6582 7.27204H92.3412C92.245 7.27204 92.167 7.35004 92.167 7.44625V10.8294C92.167 10.9256 92.245 11.0036 92.3412 11.0036H94.6582C94.7544 11.0036 94.8324 11.0816 94.8324 11.1778V18.7802Z" fill="#04504C"/>
<path d="M107.007 5.54734C108.45 5.54734 109.579 4.48119 109.579 3.07011C109.579 1.62767 108.45 0.561523 107.007 0.561523C105.565 0.561523 104.436 1.62767 104.436 3.07011C104.436 4.48119 105.565 5.54734 107.007 5.54734ZM104.781 23.2154C104.781 23.3117 104.859 23.3897 104.955 23.3897H109.059C109.156 23.3897 109.234 23.3117 109.234 23.2154V7.4462C109.234 7.34999 109.156 7.27199 109.059 7.27199H104.955C104.859 7.27199 104.781 7.34999 104.781 7.4462V23.2154Z" fill="#04504C"/>
<path d="M110.465 10.8292C110.465 10.9254 110.543 11.0034 110.639 11.0034H112.956C113.052 11.0034 113.13 11.0814 113.13 11.1776V23.2153C113.13 23.3116 113.208 23.3896 113.304 23.3896H117.377C117.473 23.3896 117.551 23.3116 117.551 23.2153V11.1776C117.551 11.0814 117.629 11.0034 117.726 11.0034H121.422C121.519 11.0034 121.597 10.9254 121.597 10.8292V7.44612C121.597 7.34991 121.519 7.27191 121.422 7.27191H117.632C117.535 7.27191 117.457 7.19392 117.457 7.0977V6.51933C117.457 5.60997 117.896 5.20233 118.774 5.20233H121.422C121.519 5.20233 121.597 5.12433 121.597 5.02812V1.61366C121.597 1.51744 121.519 1.43945 121.422 1.43945H117.99C114.729 1.43945 113.13 3.10139 113.13 6.08033V7.0977C113.13 7.19392 113.052 7.27191 112.956 7.27191H110.639C110.543 7.27191 110.465 7.34991 110.465 7.44612V10.8292Z" fill="#04504C"/>
<path d="M129.001 23.4215C129.017 23.4616 129.017 23.5059 129.001 23.546L128.617 24.5499C128.178 25.6474 127.802 25.9296 126.673 25.9296H124.402C124.305 25.9296 124.227 26.0076 124.227 26.1038V29.4869C124.227 29.5831 124.305 29.6611 124.402 29.6611H128.523C131.032 29.6611 131.847 28.3441 132.851 25.6787L139.908 7.50925C139.952 7.39506 139.868 7.27197 139.745 7.27197H135.391C135.316 7.27197 135.249 7.31995 135.225 7.39109L131.603 18.259C131.55 18.4172 131.327 18.418 131.273 18.2602L127.56 7.38987C127.536 7.31936 127.47 7.27197 127.395 7.27197H123.07C122.947 7.27197 122.863 7.39441 122.907 7.50848L129.001 23.4215Z" fill="#04504C"/>
</g>
<defs>
<clipPath id="clip0_2297_13346">
<rect width="140" height="30" fill="white"/>
</clipPath>
</defs>
</svg>
