<svg width="533" height="390" viewBox="0 0 533 390" fill="none" xmlns="http://www.w3.org/2000/svg">
<g opacity="0.08">
<path d="M15.5 0H44.2178C52.7782 0 59.7178 6.93959 59.7178 15.5V46.5C59.7178 55.0604 52.7782 62 44.2178 62H15.5C6.93956 62 -2.67029e-05 55.0604 -2.67029e-05 46.5V15.5C-2.67029e-05 6.93959 6.93956 0 15.5 0Z" fill="#04504C"/>
<path d="M41.4844 9.6875L26.0617 52.3125H18.2344L33.6571 9.6875H41.4844Z" fill="#9FE870"/>
</g>
<g opacity="0.08">
<path d="M94.2177 0H122.936C131.496 0 138.436 6.93959 138.436 15.5V46.5C138.436 55.0604 131.496 62 122.936 62H94.2177C85.6573 62 78.7177 55.0604 78.7177 46.5V15.5C78.7177 6.93959 85.6573 0 94.2177 0Z" fill="#04504C"/>
<path d="M96.9521 9.6875L112.375 52.3125H120.202L104.779 9.6875H96.9521Z" fill="#9FE870"/>
</g>
<g opacity="0.08">
<path d="M201.653 0H172.936C164.375 0 157.436 6.93959 157.436 15.5V46.5C157.436 55.0604 164.375 62 172.936 62H201.653C210.214 62 217.153 55.0604 217.153 46.5V15.5C217.153 6.93959 210.214 0 201.653 0Z" fill="#04504C"/>
<path d="M198.92 9.6875L183.497 52.3125H175.67L191.093 9.6875H198.92Z" fill="#9FE870"/>
</g>
<g opacity="0.08">
<path d="M251.653 0H280.371C288.932 0 295.871 6.93959 295.871 15.5V46.5C295.871 55.0604 288.932 62 280.371 62H251.653C243.093 62 236.153 55.0604 236.153 46.5V15.5C236.153 6.93959 243.093 0 251.653 0Z" fill="#04504C"/>
<path d="M254.387 9.6875L269.81 52.3125H277.637L262.214 9.6875H254.387Z" fill="#9FE870"/>
</g>
<g opacity="0.08">
<path d="M359.089 0H330.371C321.811 0 314.871 6.93959 314.871 15.5V46.5C314.871 55.0604 321.811 62 330.371 62H359.089C367.649 62 374.589 55.0604 374.589 46.5V15.5C374.589 6.93959 367.649 0 359.089 0Z" fill="#04504C"/>
<path d="M356.355 9.6875L340.932 52.3125H333.105L348.527 9.6875H356.355Z" fill="#9FE870"/>
</g>
<g opacity="0.08">
<path d="M409.089 0H437.807C446.367 0 453.307 6.93959 453.307 15.5V46.5C453.307 55.0604 446.367 62 437.807 62H409.089C400.528 62 393.589 55.0604 393.589 46.5V15.5C393.589 6.93959 400.528 0 409.089 0Z" fill="#04504C"/>
<path d="M411.822 9.6875L427.245 52.3125H435.072L419.649 9.6875H411.822Z" fill="#9FE870"/>
</g>
<g opacity="0.08">
<path d="M487.808 0H516.525C525.086 0 532.025 6.93959 532.025 15.5V46.5C532.025 55.0604 525.086 62 516.525 62H487.808C479.247 62 472.308 55.0604 472.308 46.5V15.5C472.308 6.93959 479.247 0 487.808 0Z" fill="#04504C"/>
<path d="M513.789 9.6875L498.366 52.3125H490.539L505.962 9.6875H513.789Z" fill="#9FE870"/>
</g>
<g opacity="0.08">
<path d="M15.5 82H44.2178C52.7782 82 59.7178 88.9396 59.7178 97.5V128.5C59.7178 137.06 52.7782 144 44.2178 144H15.5C6.93956 144 -2.67029e-05 137.06 -2.67029e-05 128.5V97.5C-2.67029e-05 88.9396 6.93956 82 15.5 82Z" fill="#04504C"/>
<path d="M41.4844 91.6875L26.0617 134.313H18.2344L33.6571 91.6875H41.4844Z" fill="#9FE870"/>
</g>
<g opacity="0.08">
<path d="M94.2177 82H122.936C131.496 82 138.436 88.9396 138.436 97.5V128.5C138.436 137.06 131.496 144 122.936 144H94.2177C85.6573 144 78.7177 137.06 78.7177 128.5V97.5C78.7177 88.9396 85.6573 82 94.2177 82Z" fill="#04504C"/>
<path d="M96.9521 91.6875L112.375 134.313H120.202L104.779 91.6875H96.9521Z" fill="#9FE870"/>
</g>
<g opacity="0.08">
<path d="M201.653 82H172.936C164.375 82 157.436 88.9396 157.436 97.5V128.5C157.436 137.06 164.375 144 172.936 144H201.653C210.214 144 217.153 137.06 217.153 128.5V97.5C217.153 88.9396 210.214 82 201.653 82Z" fill="#04504C"/>
<path d="M198.92 91.6875L183.497 134.313H175.67L191.093 91.6875H198.92Z" fill="#9FE870"/>
</g>
<g opacity="0.08">
<path d="M251.653 82H280.371C288.932 82 295.871 88.9396 295.871 97.5V128.5C295.871 137.06 288.932 144 280.371 144H251.653C243.093 144 236.153 137.06 236.153 128.5V97.5C236.153 88.9396 243.093 82 251.653 82Z" fill="#04504C"/>
<path d="M254.387 91.6875L269.81 134.313H277.637L262.214 91.6875H254.387Z" fill="#9FE870"/>
</g>
<g opacity="0.08">
<path d="M359.089 82H330.371C321.811 82 314.871 88.9396 314.871 97.5V128.5C314.871 137.06 321.811 144 330.371 144H359.089C367.649 144 374.589 137.06 374.589 128.5V97.5C374.589 88.9396 367.649 82 359.089 82Z" fill="#04504C"/>
<path d="M356.355 91.6875L340.932 134.313H333.105L348.527 91.6875H356.355Z" fill="#9FE870"/>
</g>
<g opacity="0.08">
<path d="M409.089 82H437.807C446.367 82 453.307 88.9396 453.307 97.5V128.5C453.307 137.06 446.367 144 437.807 144H409.089C400.528 144 393.589 137.06 393.589 128.5V97.5C393.589 88.9396 400.528 82 409.089 82Z" fill="#04504C"/>
<path d="M411.822 91.6875L427.245 134.313H435.072L419.649 91.6875H411.822Z" fill="#9FE870"/>
</g>
<g opacity="0.08">
<path d="M487.808 82H516.525C525.086 82 532.025 88.9396 532.025 97.5V128.5C532.025 137.06 525.086 144 516.525 144H487.808C479.247 144 472.308 137.06 472.308 128.5V97.5C472.308 88.9396 479.247 82 487.808 82Z" fill="#04504C"/>
<path d="M513.789 91.6875L498.366 134.313H490.539L505.962 91.6875H513.789Z" fill="#9FE870"/>
</g>
<g opacity="0.08">
<path d="M44.2178 164H15.5C6.93959 164 0 170.94 0 179.5V210.5C0 219.06 6.93959 226 15.5 226H44.2178C52.7782 226 59.7178 219.06 59.7178 210.5V179.5C59.7178 170.94 52.7782 164 44.2178 164Z" fill="#04504C"/>
<path d="M18.2344 173.688L33.6571 216.313H41.4844L26.0617 173.688H18.2344Z" fill="#9FE870"/>
</g>
<g opacity="0.08">
<path d="M122.936 164H94.2178C85.6574 164 78.7178 170.94 78.7178 179.5V210.5C78.7178 219.06 85.6574 226 94.2178 226H122.936C131.496 226 138.436 219.06 138.436 210.5V179.5C138.436 170.94 131.496 164 122.936 164Z" fill="#04504C"/>
<path d="M120.202 173.688L104.779 216.313H96.9521L112.375 173.688H120.202Z" fill="#9FE870"/>
</g>
<g opacity="0.08">
<path d="M172.936 164H201.653C210.214 164 217.153 170.94 217.153 179.5V210.5C217.153 219.06 210.214 226 201.653 226H172.936C164.375 226 157.436 219.06 157.436 210.5V179.5C157.436 170.94 164.375 164 172.936 164Z" fill="#04504C"/>
<path d="M175.67 173.688L191.093 216.313H198.92L183.497 173.688H175.67Z" fill="#9FE870"/>
</g>
<path d="M280.371 164H251.653C243.093 164 236.153 170.94 236.153 179.5V210.5C236.153 219.06 243.093 226 251.653 226H280.371C288.932 226 295.871 219.06 295.871 210.5V179.5C295.871 170.94 288.932 164 280.371 164Z" fill="#04504C"/>
<path d="M277.638 173.688L262.215 216.313H254.388L269.811 173.688H277.638Z" fill="#9FE870"/>
<g opacity="0.08">
<path d="M330.371 164H359.089C367.649 164 374.589 170.94 374.589 179.5V210.5C374.589 219.06 367.649 226 359.089 226H330.371C321.811 226 314.871 219.06 314.871 210.5V179.5C314.871 170.94 321.811 164 330.371 164Z" fill="#04504C"/>
<path d="M333.104 173.688L348.526 216.313H356.354L340.931 173.688H333.104Z" fill="#9FE870"/>
</g>
<g opacity="0.08">
<path d="M437.807 164H409.089C400.528 164 393.589 170.94 393.589 179.5V210.5C393.589 219.06 400.528 226 409.089 226H437.807C446.367 226 453.307 219.06 453.307 210.5V179.5C453.307 170.94 446.367 164 437.807 164Z" fill="#04504C"/>
<path d="M435.073 173.688L419.65 216.313H411.823L427.246 173.688H435.073Z" fill="#9FE870"/>
</g>
<g opacity="0.08">
<path d="M516.524 226H487.807C479.246 226 472.307 219.06 472.307 210.5V179.5C472.307 170.94 479.246 164 487.807 164H516.524C525.085 164 532.024 170.94 532.024 179.5V210.5C532.024 219.06 525.085 226 516.524 226Z" fill="#04504C"/>
<path d="M490.539 173.688L505.962 216.313H513.789L498.366 173.688H490.539Z" fill="#9FE870"/>
</g>
<g opacity="0.08">
<path d="M15.5 246H44.2178C52.7782 246 59.7178 252.94 59.7178 261.5V292.5C59.7178 301.06 52.7782 308 44.2178 308H15.5C6.93956 308 -2.67029e-05 301.06 -2.67029e-05 292.5V261.5C-2.67029e-05 252.94 6.93956 246 15.5 246Z" fill="#04504C"/>
<path d="M41.4844 255.688L26.0617 298.313H18.2344L33.6571 255.688H41.4844Z" fill="#9FE870"/>
</g>
<g opacity="0.08">
<path d="M94.2177 246H122.936C131.496 246 138.436 252.94 138.436 261.5V292.5C138.436 301.06 131.496 308 122.936 308H94.2177C85.6573 308 78.7177 301.06 78.7177 292.5V261.5C78.7177 252.94 85.6573 246 94.2177 246Z" fill="#04504C"/>
<path d="M96.9521 255.688L112.375 298.313H120.202L104.779 255.688H96.9521Z" fill="#9FE870"/>
</g>
<g opacity="0.08">
<path d="M201.653 246H172.936C164.375 246 157.436 252.94 157.436 261.5V292.5C157.436 301.06 164.375 308 172.936 308H201.653C210.214 308 217.153 301.06 217.153 292.5V261.5C217.153 252.94 210.214 246 201.653 246Z" fill="#04504C"/>
<path d="M198.92 255.688L183.497 298.313H175.67L191.093 255.688H198.92Z" fill="#9FE870"/>
</g>
<g opacity="0.08">
<path d="M251.653 246H280.371C288.932 246 295.871 252.94 295.871 261.5V292.5C295.871 301.06 288.932 308 280.371 308H251.653C243.093 308 236.153 301.06 236.153 292.5V261.5C236.153 252.94 243.093 246 251.653 246Z" fill="#04504C"/>
<path d="M254.387 255.688L269.81 298.313H277.637L262.214 255.688H254.387Z" fill="#9FE870"/>
</g>
<g opacity="0.08">
<path d="M359.089 246H330.371C321.811 246 314.871 252.94 314.871 261.5V292.5C314.871 301.06 321.811 308 330.371 308H359.089C367.649 308 374.589 301.06 374.589 292.5V261.5C374.589 252.94 367.649 246 359.089 246Z" fill="#04504C"/>
<path d="M356.355 255.688L340.932 298.313H333.105L348.527 255.688H356.355Z" fill="#9FE870"/>
</g>
<g opacity="0.08">
<path d="M409.089 246H437.807C446.367 246 453.307 252.94 453.307 261.5V292.5C453.307 301.06 446.367 308 437.807 308H409.089C400.528 308 393.589 301.06 393.589 292.5V261.5C393.589 252.94 400.528 246 409.089 246Z" fill="#04504C"/>
<path d="M411.822 255.688L427.245 298.313H435.072L419.649 255.688H411.822Z" fill="#9FE870"/>
</g>
<g opacity="0.08">
<path d="M487.808 246H516.525C525.086 246 532.025 252.94 532.025 261.5V292.5C532.025 301.06 525.086 308 516.525 308H487.808C479.247 308 472.308 301.06 472.308 292.5V261.5C472.308 252.94 479.247 246 487.808 246Z" fill="#04504C"/>
<path d="M513.789 255.688L498.366 298.313H490.539L505.962 255.688H513.789Z" fill="#9FE870"/>
</g>
<g opacity="0.08">
<path d="M15.5 328H44.2178C52.7782 328 59.7178 334.94 59.7178 343.5V374.5C59.7178 383.06 52.7782 390 44.2178 390H15.5C6.93956 390 -2.67029e-05 383.06 -2.67029e-05 374.5V343.5C-2.67029e-05 334.94 6.93956 328 15.5 328Z" fill="#04504C"/>
<path d="M41.4844 337.688L26.0617 380.313H18.2344L33.6571 337.688H41.4844Z" fill="#9FE870"/>
</g>
<g opacity="0.08">
<path d="M94.2177 328H122.936C131.496 328 138.436 334.94 138.436 343.5V374.5C138.436 383.06 131.496 390 122.936 390H94.2177C85.6573 390 78.7177 383.06 78.7177 374.5V343.5C78.7177 334.94 85.6573 328 94.2177 328Z" fill="#04504C"/>
<path d="M96.9521 337.688L112.375 380.313H120.202L104.779 337.688H96.9521Z" fill="#9FE870"/>
</g>
<g opacity="0.08">
<path d="M201.653 328H172.936C164.375 328 157.436 334.94 157.436 343.5V374.5C157.436 383.06 164.375 390 172.936 390H201.653C210.214 390 217.153 383.06 217.153 374.5V343.5C217.153 334.94 210.214 328 201.653 328Z" fill="#04504C"/>
<path d="M198.92 337.688L183.497 380.313H175.67L191.093 337.688H198.92Z" fill="#9FE870"/>
</g>
<g opacity="0.08">
<path d="M251.653 328H280.371C288.932 328 295.871 334.94 295.871 343.5V374.5C295.871 383.06 288.932 390 280.371 390H251.653C243.093 390 236.153 383.06 236.153 374.5V343.5C236.153 334.94 243.093 328 251.653 328Z" fill="#04504C"/>
<path d="M254.387 337.688L269.81 380.313H277.637L262.214 337.688H254.387Z" fill="#9FE870"/>
</g>
<g opacity="0.08">
<path d="M359.089 328H330.371C321.811 328 314.871 334.94 314.871 343.5V374.5C314.871 383.06 321.811 390 330.371 390H359.089C367.649 390 374.589 383.06 374.589 374.5V343.5C374.589 334.94 367.649 328 359.089 328Z" fill="#04504C"/>
<path d="M356.355 337.688L340.932 380.313H333.105L348.527 337.688H356.355Z" fill="#9FE870"/>
</g>
<g opacity="0.08">
<path d="M409.089 328H437.807C446.367 328 453.307 334.94 453.307 343.5V374.5C453.307 383.06 446.367 390 437.807 390H409.089C400.528 390 393.589 383.06 393.589 374.5V343.5C393.589 334.94 400.528 328 409.089 328Z" fill="#04504C"/>
<path d="M411.822 337.688L427.245 380.313H435.072L419.649 337.688H411.822Z" fill="#9FE870"/>
</g>
<g opacity="0.08">
<path d="M487.808 328H516.525C525.086 328 532.025 334.94 532.025 343.5V374.5C532.025 383.06 525.086 390 516.525 390H487.808C479.247 390 472.308 383.06 472.308 374.5V343.5C472.308 334.94 479.247 328 487.808 328Z" fill="#04504C"/>
<path d="M513.789 337.688L498.366 380.313H490.539L505.962 337.688H513.789Z" fill="#9FE870"/>
</g>
</svg>
